<svg width="108" height="24" viewBox="0 0 108 24" fill="none" xmlns="http://www.w3.org/2000/svg">
<path d="M30.624 10.288L29.28 18.16H26.544L24.464 5.616H26.576L28.064 14.992L29.456 6.496H31.76L33.184 14.992L34.64 5.616H36.736L34.656 18.16H31.888L30.624 10.288ZM46.2943 18.16H44.1023L43.3023 15.168H39.7823L38.9823 18.16H36.8063L40.3743 5.616H42.7103L46.2943 18.16ZM40.2783 13.312H42.8223L41.5583 8.528L40.2783 13.312ZM49.8578 5.616V15.408C49.8578 15.5787 49.9111 15.7173 50.0178 15.824L50.3218 16.176C50.4284 16.272 50.5458 16.32 50.6738 16.32H55.0898V18.16H49.9218C49.7724 18.16 49.6444 18.1547 49.5378 18.144C49.4418 18.1333 49.3511 18.112 49.2658 18.08C49.1804 18.048 49.0951 18 49.0098 17.936C48.9351 17.872 48.8498 17.7867 48.7538 17.68L48.0658 16.944C47.8951 16.7627 47.7831 16.5973 47.7298 16.448C47.6764 16.2987 47.6497 16.064 47.6497 15.744V5.616H49.8578ZM58.9671 5.616V10.656L62.5671 5.616H65.2391L60.8711 11.584L65.4791 18.16H62.7431L58.9671 12.624V18.16H56.7591V5.616H58.9671ZM70.3893 16.32C71.1253 16.32 71.6959 16.1493 72.1013 15.808C72.5066 15.4667 72.7093 15.0133 72.7093 14.448C72.7093 13.9147 72.5066 13.472 72.1013 13.12C71.7066 12.7573 71.1573 12.576 70.4533 12.576H69.0453V16.32H70.3893ZM70.3573 10.816C70.9973 10.816 71.4879 10.6613 71.8293 10.352C72.1706 10.0427 72.3413 9.63733 72.3413 9.136C72.3413 8.61333 72.1706 8.20267 71.8293 7.904C71.4986 7.60533 70.9866 7.456 70.2933 7.456H69.0453V10.816H70.3573ZM66.8372 6.208C66.8372 5.81333 67.0346 5.616 67.4293 5.616H70.5493C71.2426 5.616 71.8399 5.70133 72.3413 5.872C72.8426 6.032 73.2586 6.26133 73.5893 6.56C73.9199 6.848 74.1599 7.19467 74.3093 7.6C74.4693 8.00533 74.5493 8.44267 74.5493 8.912C74.5493 9.552 74.4213 10.0907 74.1653 10.528C73.9093 10.9653 73.5199 11.328 72.9973 11.616C73.6266 11.8613 74.1013 12.2613 74.4213 12.816C74.7519 13.36 74.9173 13.968 74.9173 14.64C74.9173 15.1733 74.8213 15.6587 74.6293 16.096C74.4479 16.5227 74.1759 16.8907 73.8133 17.2C73.4613 17.4987 73.0186 17.7333 72.4853 17.904C71.9519 18.0747 71.3439 18.16 70.6613 18.16H67.4293C67.0346 18.16 66.8372 17.9573 66.8372 17.552V6.208ZM85.6711 13.84C85.6711 14.544 85.5698 15.1787 85.3671 15.744C85.1751 16.3093 84.8871 16.7893 84.5031 17.184C84.1191 17.568 83.6445 17.8667 83.0791 18.08C82.5245 18.2933 81.8845 18.4 81.1591 18.4C80.4338 18.4 79.7938 18.2933 79.2391 18.08C78.6845 17.8667 78.2151 17.5627 77.8311 17.168C77.4471 16.7733 77.1538 16.2933 76.9511 15.728C76.7591 15.1627 76.6631 14.528 76.6631 13.824V9.952C76.6631 9.248 76.7591 8.61333 76.9511 8.048C77.1538 7.48267 77.4471 7.00267 77.8311 6.608C78.2151 6.21333 78.6845 5.90933 79.2391 5.696C79.7938 5.48267 80.4338 5.376 81.1591 5.376C81.8845 5.376 82.5245 5.48267 83.0791 5.696C83.6445 5.90933 84.1191 6.21333 84.5031 6.608C84.8871 7.00267 85.1751 7.48267 85.3671 8.048C85.5698 8.61333 85.6711 9.248 85.6711 9.952V13.84ZM83.4631 9.936C83.4631 9.52 83.4098 9.14667 83.3031 8.816C83.1965 8.47467 83.0418 8.18667 82.8391 7.952C82.6365 7.70667 82.3911 7.52 82.1031 7.392C81.8258 7.264 81.5111 7.2 81.1591 7.2C80.4658 7.2 79.9111 7.45067 79.4951 7.952C79.0898 8.44267 78.8871 9.104 78.8871 9.936V13.856C78.8871 14.688 79.0898 15.3493 79.4951 15.84C79.9111 16.32 80.4658 16.56 81.1591 16.56C81.8631 16.56 82.4231 16.32 82.8391 15.84C83.2551 15.3493 83.4631 14.688 83.4631 13.856V9.936ZM96.593 13.84C96.593 14.544 96.4917 15.1787 96.289 15.744C96.097 16.3093 95.809 16.7893 95.425 17.184C95.041 17.568 94.5663 17.8667 94.001 18.08C93.4463 18.2933 92.8063 18.4 92.081 18.4C91.3557 18.4 90.7157 18.2933 90.161 18.08C89.6063 17.8667 89.137 17.5627 88.753 17.168C88.369 16.7733 88.0757 16.2933 87.873 15.728C87.681 15.1627 87.585 14.528 87.585 13.824V9.952C87.585 9.248 87.681 8.61333 87.873 8.048C88.0757 7.48267 88.369 7.00267 88.753 6.608C89.137 6.21333 89.6063 5.90933 90.161 5.696C90.7157 5.48267 91.3557 5.376 92.081 5.376C92.8063 5.376 93.4463 5.48267 94.001 5.696C94.5663 5.90933 95.041 6.21333 95.425 6.608C95.809 7.00267 96.097 7.48267 96.289 8.048C96.4917 8.61333 96.593 9.248 96.593 9.952V13.84ZM94.385 9.936C94.385 9.52 94.3317 9.14667 94.225 8.816C94.1183 8.47467 93.9637 8.18667 93.761 7.952C93.5583 7.70667 93.313 7.52 93.025 7.392C92.7477 7.264 92.433 7.2 92.081 7.2C91.3877 7.2 90.833 7.45067 90.417 7.952C90.0117 8.44267 89.809 9.104 89.809 9.936V13.856C89.809 14.688 90.0117 15.3493 90.417 15.84C90.833 16.32 91.3877 16.56 92.081 16.56C92.785 16.56 93.345 16.32 93.761 15.84C94.177 15.3493 94.385 14.688 94.385 13.856V9.936ZM100.811 5.616V10.656L104.411 5.616H107.083L102.715 11.584L107.323 18.16H104.587L100.811 12.624V18.16H98.6029V5.616H100.811Z" fill="url(#paint0_linear_6_68)"/>
<rect width="22.7928" height="2.73418" transform="matrix(-1 0 0 1 22.7928 21.2659)" fill="#02C75A"/>
<rect width="11.3964" height="2.73418" transform="matrix(-1 0 0 1 12.5526 0)" fill="#02C75A"/>
<rect width="23.5673" height="2.67568" transform="matrix(0 -1 -1 0 2.67569 23.5673)" fill="#02C75A"/>
<rect width="16.2025" height="2.67568" transform="matrix(0 -1 -1 0 14.8318 16.2025)" fill="#02C75A"/>
<defs>
<linearGradient id="paint0_linear_6_68" x1="19.4118" y1="1.5238" x2="108.166" y2="11.0242" gradientUnits="userSpaceOnUse">
<stop stop-color="#02C75A"/>
<stop offset="1" stop-color="#005CFD" stop-opacity="0.52"/>
</linearGradient>
</defs>
</svg>
