<svg width="197" height="42" viewBox="0 0 197 42" fill="none" xmlns="http://www.w3.org/2000/svg">
<path d="M51.42 18.54L48.9 33.3H43.77L39.87 9.78H43.83L46.62 27.36L49.23 11.43H53.55L56.22 27.36L58.95 9.78H62.88L58.98 33.3H53.79L51.42 18.54ZM80.8017 33.3H76.6917L75.1917 27.69H68.5917L67.0917 33.3H63.0117L69.7017 9.78H74.0817L80.8017 33.3ZM69.5217 24.21H74.2917L71.9217 15.24L69.5217 24.21ZM87.4833 9.78V28.14C87.4833 28.46 87.5833 28.72 87.7833 28.92L88.3533 29.58C88.5533 29.76 88.7733 29.85 89.0133 29.85H97.2933V33.3H87.6033C87.3233 33.3 87.0833 33.29 86.8833 33.27C86.7033 33.25 86.5333 33.21 86.3733 33.15C86.2133 33.09 86.0533 33 85.8933 32.88C85.7533 32.76 85.5933 32.6 85.4133 32.4L84.1233 31.02C83.8033 30.68 83.5933 30.37 83.4933 30.09C83.3933 29.81 83.3433 29.37 83.3433 28.77V9.78H87.4833ZM104.563 9.78V19.23L111.313 9.78H116.323L108.133 20.97L116.773 33.3H111.643L104.563 22.92V33.3H100.423V9.78H104.563ZM125.98 29.85C127.36 29.85 128.43 29.53 129.19 28.89C129.95 28.25 130.33 27.4 130.33 26.34C130.33 25.34 129.95 24.51 129.19 23.85C128.45 23.17 127.42 22.83 126.1 22.83H123.46V29.85H125.98ZM125.92 19.53C127.12 19.53 128.04 19.24 128.68 18.66C129.32 18.08 129.64 17.32 129.64 16.38C129.64 15.4 129.32 14.63 128.68 14.07C128.06 13.51 127.1 13.23 125.8 13.23H123.46V19.53H125.92ZM119.32 10.89C119.32 10.15 119.69 9.78 120.43 9.78H126.28C127.58 9.78 128.7 9.94 129.64 10.26C130.58 10.56 131.36 10.99 131.98 11.55C132.6 12.09 133.05 12.74 133.33 13.5C133.63 14.26 133.78 15.08 133.78 15.96C133.78 17.16 133.54 18.17 133.06 18.99C132.58 19.81 131.85 20.49 130.87 21.03C132.05 21.49 132.94 22.24 133.54 23.28C134.16 24.3 134.47 25.44 134.47 26.7C134.47 27.7 134.29 28.61 133.93 29.43C133.59 30.23 133.08 30.92 132.4 31.5C131.74 32.06 130.91 32.5 129.91 32.82C128.91 33.14 127.77 33.3 126.49 33.3H120.43C119.69 33.3 119.32 32.92 119.32 32.16V10.89ZM154.633 25.2C154.633 26.52 154.443 27.71 154.063 28.77C153.703 29.83 153.163 30.73 152.443 31.47C151.723 32.19 150.833 32.75 149.773 33.15C148.733 33.55 147.533 33.75 146.173 33.75C144.813 33.75 143.613 33.55 142.573 33.15C141.533 32.75 140.653 32.18 139.933 31.44C139.213 30.7 138.663 29.8 138.283 28.74C137.923 27.68 137.743 26.49 137.743 25.17V17.91C137.743 16.59 137.923 15.4 138.283 14.34C138.663 13.28 139.213 12.38 139.933 11.64C140.653 10.9 141.533 10.33 142.573 9.93C143.613 9.53 144.813 9.33 146.173 9.33C147.533 9.33 148.733 9.53 149.773 9.93C150.833 10.33 151.723 10.9 152.443 11.64C153.163 12.38 153.703 13.28 154.063 14.34C154.443 15.4 154.633 16.59 154.633 17.91V25.2ZM150.493 17.88C150.493 17.1 150.393 16.4 150.193 15.78C149.993 15.14 149.703 14.6 149.323 14.16C148.943 13.7 148.483 13.35 147.943 13.11C147.423 12.87 146.833 12.75 146.173 12.75C144.873 12.75 143.833 13.22 143.053 14.16C142.293 15.08 141.913 16.32 141.913 17.88V25.23C141.913 26.79 142.293 28.03 143.053 28.95C143.833 29.85 144.873 30.3 146.173 30.3C147.493 30.3 148.543 29.85 149.323 28.95C150.103 28.03 150.493 26.79 150.493 25.23V17.88ZM175.112 25.2C175.112 26.52 174.922 27.71 174.542 28.77C174.182 29.83 173.642 30.73 172.922 31.47C172.202 32.19 171.312 32.75 170.252 33.15C169.212 33.55 168.012 33.75 166.652 33.75C165.292 33.75 164.092 33.55 163.052 33.15C162.012 32.75 161.132 32.18 160.412 31.44C159.692 30.7 159.142 29.8 158.762 28.74C158.402 27.68 158.222 26.49 158.222 25.17V17.91C158.222 16.59 158.402 15.4 158.762 14.34C159.142 13.28 159.692 12.38 160.412 11.64C161.132 10.9 162.012 10.33 163.052 9.93C164.092 9.53 165.292 9.33 166.652 9.33C168.012 9.33 169.212 9.53 170.252 9.93C171.312 10.33 172.202 10.9 172.922 11.64C173.642 12.38 174.182 13.28 174.542 14.34C174.922 15.4 175.112 16.59 175.112 17.91V25.2ZM170.972 17.88C170.972 17.1 170.872 16.4 170.672 15.78C170.472 15.14 170.182 14.6 169.802 14.16C169.422 13.7 168.962 13.35 168.422 13.11C167.902 12.87 167.312 12.75 166.652 12.75C165.352 12.75 164.312 13.22 163.532 14.16C162.772 15.08 162.392 16.32 162.392 17.88V25.23C162.392 26.79 162.772 28.03 163.532 28.95C164.312 29.85 165.352 30.3 166.652 30.3C167.972 30.3 169.022 29.85 169.802 28.95C170.582 28.03 170.972 26.79 170.972 25.23V17.88ZM183.02 9.78V19.23L189.77 9.78H194.78L186.59 20.97L195.23 33.3H190.1L183.02 22.92V33.3H178.88V9.78H183.02Z" fill="url(#paint0_linear_138_52)"/>
<rect width="39.9994" height="3.81818" transform="matrix(-1 0 0 1 40 38.1819)" fill="#02C75A"/>
<rect width="19.9997" height="3.81818" transform="matrix(-1 0 0 1 21.333 0.00012207)" fill="#02C75A"/>
<rect width="40.7272" height="3.99994" transform="matrix(0 -1 -1 0 4 40.7272)" fill="#02C75A"/>
<rect width="28" height="3.99994" transform="matrix(0 -1 -1 0 25.3335 28.0001)" fill="#02C75A"/>
<defs>
<linearGradient id="paint0_linear_138_52" x1="30.3697" y1="3.80951" x2="198.136" y2="17.3209" gradientUnits="userSpaceOnUse">
<stop stop-color="#02C75A"/>
<stop offset="1" stop-color="#005CFD" stop-opacity="0.52"/>
</linearGradient>
</defs>
</svg>
