<svg width="145" height="32" viewBox="0 0 145 32" fill="none" xmlns="http://www.w3.org/2000/svg">
<path d="M39.108 13.396L37.26 24.22H33.498L30.638 6.972H33.542L35.588 19.864L37.502 8.182H40.67L42.628 19.864L44.63 6.972H47.512L44.652 24.22H40.846L39.108 13.396ZM60.6546 24.22H57.6406L56.5406 20.106H51.7006L50.6006 24.22H47.6086L52.5146 6.972H55.7266L60.6546 24.22ZM52.3826 17.554H55.8806L54.1426 10.976L52.3826 17.554ZM65.5544 6.972V20.436C65.5544 20.6707 65.6277 20.8613 65.7744 21.008L66.1924 21.492C66.3391 21.624 66.5004 21.69 66.6764 21.69H72.7484V24.22H65.6424C65.4371 24.22 65.2611 24.2127 65.1144 24.198C64.9824 24.1833 64.8577 24.154 64.7404 24.11C64.6231 24.066 64.5057 24 64.3884 23.912C64.2857 23.824 64.1684 23.7067 64.0364 23.56L63.0904 22.548C62.8557 22.2987 62.7017 22.0713 62.6284 21.866C62.5551 21.6607 62.5184 21.338 62.5184 20.898V6.972H65.5544ZM78.0798 6.972V13.902L83.0298 6.972H86.7038L80.6978 15.178L87.0338 24.22H83.2718L78.0798 16.608V24.22H75.0438V6.972H78.0798ZM93.7852 21.69C94.7972 21.69 95.5819 21.4553 96.1392 20.986C96.6966 20.5167 96.9752 19.8933 96.9752 19.116C96.9752 18.3827 96.6966 17.774 96.1392 17.29C95.5966 16.7913 94.8412 16.542 93.8732 16.542H91.9372V21.69H93.7852ZM93.7412 14.122C94.6212 14.122 95.2959 13.9093 95.7652 13.484C96.2346 13.0587 96.4692 12.5013 96.4692 11.812C96.4692 11.0933 96.2346 10.5287 95.7652 10.118C95.3106 9.70733 94.6066 9.502 93.6532 9.502H91.9372V14.122H93.7412ZM88.9012 7.786C88.9012 7.24333 89.1726 6.972 89.7152 6.972H94.0052C94.9586 6.972 95.7799 7.08933 96.4692 7.324C97.1586 7.544 97.7306 7.85933 98.1852 8.27C98.6399 8.666 98.9699 9.14267 99.1752 9.7C99.3952 10.2573 99.5052 10.8587 99.5052 11.504C99.5052 12.384 99.3292 13.1247 98.9772 13.726C98.6252 14.3273 98.0899 14.826 97.3712 15.222C98.2366 15.5593 98.8892 16.1093 99.3292 16.872C99.7839 17.62 100.011 18.456 100.011 19.38C100.011 20.1133 99.8792 20.7807 99.6152 21.382C99.3659 21.9687 98.9919 22.4747 98.4932 22.9C98.0092 23.3107 97.4006 23.6333 96.6672 23.868C95.9339 24.1027 95.0979 24.22 94.1592 24.22H89.7152C89.1726 24.22 88.9012 23.9413 88.9012 23.384V7.786ZM114.798 18.28C114.798 19.248 114.658 20.1207 114.38 20.898C114.116 21.6753 113.72 22.3353 113.192 22.878C112.664 23.406 112.011 23.8167 111.234 24.11C110.471 24.4033 109.591 24.55 108.594 24.55C107.596 24.55 106.716 24.4033 105.954 24.11C105.191 23.8167 104.546 23.3987 104.018 22.856C103.49 22.3133 103.086 21.6533 102.808 20.876C102.544 20.0987 102.412 19.226 102.412 18.258V12.934C102.412 11.966 102.544 11.0933 102.808 10.316C103.086 9.53867 103.49 8.87867 104.018 8.336C104.546 7.79333 105.191 7.37533 105.954 7.082C106.716 6.78867 107.596 6.642 108.594 6.642C109.591 6.642 110.471 6.78867 111.234 7.082C112.011 7.37533 112.664 7.79333 113.192 8.336C113.72 8.87867 114.116 9.53867 114.38 10.316C114.658 11.0933 114.798 11.966 114.798 12.934V18.28ZM111.762 12.912C111.762 12.34 111.688 11.8267 111.542 11.372C111.395 10.9027 111.182 10.5067 110.904 10.184C110.625 9.84667 110.288 9.59 109.892 9.414C109.51 9.238 109.078 9.15 108.594 9.15C107.64 9.15 106.878 9.49467 106.306 10.184C105.748 10.8587 105.47 11.768 105.47 12.912V18.302C105.47 19.446 105.748 20.3553 106.306 21.03C106.878 21.69 107.64 22.02 108.594 22.02C109.562 22.02 110.332 21.69 110.904 21.03C111.476 20.3553 111.762 19.446 111.762 18.302V12.912ZM129.815 18.28C129.815 19.248 129.676 20.1207 129.397 20.898C129.133 21.6753 128.737 22.3353 128.209 22.878C127.681 23.406 127.029 23.8167 126.251 24.11C125.489 24.4033 124.609 24.55 123.611 24.55C122.614 24.55 121.734 24.4033 120.971 24.11C120.209 23.8167 119.563 23.3987 119.035 22.856C118.507 22.3133 118.104 21.6533 117.825 20.876C117.561 20.0987 117.429 19.226 117.429 18.258V12.934C117.429 11.966 117.561 11.0933 117.825 10.316C118.104 9.53867 118.507 8.87867 119.035 8.336C119.563 7.79333 120.209 7.37533 120.971 7.082C121.734 6.78867 122.614 6.642 123.611 6.642C124.609 6.642 125.489 6.78867 126.251 7.082C127.029 7.37533 127.681 7.79333 128.209 8.336C128.737 8.87867 129.133 9.53867 129.397 10.316C129.676 11.0933 129.815 11.966 129.815 12.934V18.28ZM126.779 12.912C126.779 12.34 126.706 11.8267 126.559 11.372C126.413 10.9027 126.2 10.5067 125.921 10.184C125.643 9.84667 125.305 9.59 124.909 9.414C124.528 9.238 124.095 9.15 123.611 9.15C122.658 9.15 121.895 9.49467 121.323 10.184C120.766 10.8587 120.487 11.768 120.487 12.912V18.302C120.487 19.446 120.766 20.3553 121.323 21.03C121.895 21.69 122.658 22.02 123.611 22.02C124.579 22.02 125.349 21.69 125.921 21.03C126.493 20.3553 126.779 19.446 126.779 18.302V12.912ZM135.615 6.972V13.902L140.565 6.972H144.239L138.233 15.178L144.569 24.22H140.807L135.615 16.608V24.22H132.579V6.972H135.615Z" fill="url(#paint0_linear_6_54)"/>
<rect width="29.8013" height="2.90909" transform="matrix(-1 0 0 1 29.8013 29.0909)" fill="#02C75A"/>
<rect width="14.9007" height="2.90909" transform="matrix(-1 0 0 1 15.894 0)" fill="#02C75A"/>
<rect width="31.0303" height="2.98013" transform="matrix(0 -1 -1 0 2.9801 31.0303)" fill="#02C75A"/>
<rect width="21.3333" height="2.98013" transform="matrix(0 -1 -1 0 18.8741 21.3334)" fill="#02C75A"/>
<defs>
<linearGradient id="paint0_linear_6_54" x1="23.7185" y1="4.99999" x2="145.106" y2="18.5534" gradientUnits="userSpaceOnUse">
<stop stop-color="#02C75A"/>
<stop offset="1" stop-color="#005CFD" stop-opacity="0.52"/>
</linearGradient>
</defs>
</svg>
